# xmcd
#
# Track frame offsets: 
#        182
#        23637
#        46935
#        71022
#        93942
#        116932
#        140940
#        164700
#        194730
#        221377
#
# Disc length: 3173 seconds
#
# Revision: 3
# Processed by: cddbd v1.5.2PL0 Copyright (c) Steve Scherf et al.
# Submitted via: ExactAudioCopy v0.99pb4
#
DISCID=9b0c630a
DTITLE=Lee Oskar - So Much In Love
DYEAR=1997
DGENRE=Jazz
TTITLE0=So Much In Love
TTITLE1=You And I
TTITLE2=Lavender Song
TTITLE3=Leslie's Song
TTITLE4=In The Pocket
TTITLE5=Stephanie's Lullaby
TTITLE6=Whatta Day
TTITLE7=A Soulful Prayer
TTITLE8=Those Sunny Days
TTITLE9=See You Later
EXTD=YEAR: 1997
EXTT0=
EXTT1=
EXTT2=
EXTT3=
EXTT4=\n
EXTT5=
EXTT6=
EXTT7=
EXTT8=
EXTT9=
PLAYORDER=
